PathFileType	4	(X/Y/Z)	C:/Users/beibeiliu/ov580/test_trc/User1\sequence.2_training_dense_right.trc
DataRate	CameraRate	NumFrames	NumMarkers	Units	OrigDataRate	OrigDataStartFrame	OrigNumFrames
120	120	25	19	mm	120	30	145
Frame#	Time	ThumbCMC			ThumbMCP			ThumbIP			ThumbTip			IndexMCP			IndexPIP			IndexTip			MiddleMCP			MiddlePIP			MiddleTip			RingMCP			RingPIP			RingTip			PinkyMCP			PinkyPIP			PinkyTip			BackHand1			BackHand2			BackHand3	
		X0	Y0	Z0	X1	Y1	Z1	X2	Y2	Z2	X3	Y3	Z3	X4	Y4	Z4	X5	Y5	Z5	X6	Y6	Z6	X7	Y7	Z7	X8	Y8	Z8	X9	Y9	Z9	X10	Y10	Z10	X11	Y11	Z11	X12	Y12	Z12	X13	Y13	Z13	X14	Y14	Z14	X15	Y15	Z15	X16	Y16	Z16	X17	Y17	Z17	X18	Y18	Z18	
29	0.241667	131.209	108.33	114.164	109.937	112.205	81.8974	103.508	118.898	51.5679	106.394	112.859	24.1866	160.639	140.344	38.5057	145.32	137.391	15.0631	117.381	119.879	10.8222	175.451	123.78	26.995	150.428	117.369	3.87342	116.012	101.235	11.0219	183.091	100.322	27.578	158.916	98.9284	1.26632	129.62	86.6894	3.25705	186.59	75.5051	36.2965	170.17	77.0508	10.5212	142.949	77.4827	3.48139	192.098	86.4083	87.2089	189.717	69.1167	119.656	171.05	108.438	115.038	
30	0.25	131.248	111.822	112.696	110.692	115.67	80.803	105.856	118.242	53.9677	105.649	113.371	28.2776	160.035	144.728	42.7494	145.346	136.16	14.8104	118.993	120.923	10.4105	175.365	124.439	28.7371	150.246	119.136	3.56491	119.176	100.061	10.4178	183.349	101.927	25.6378	159.746	101.44	1.86789	129.69	83.7785	3.90332	185.876	77.6866	35.6405	169.685	80.757	13.0898	143.197	81.333	5.59207	192.117	85.2655	87.6518	188.004	71.7686	117.5	173.208	108.383	114.887	
31	0.258333	131.945	110.811	113.935	111.623	116.601	78.6177	107.161	119.437	53.1818	105.984	114.373	24.5224	163.765	141.735	44.1342	145.121	138.611	14.6569	118.37	119.213	10.9263	176.735	125.529	27.651	152.717	119.174	3.79405	117.221	101.704	10.7611	182.673	103.879	25.6511	160.311	99.6439	1.69377	132.452	89.9834	3.32634	187.494	75.6875	35.3046	171.664	80.2858	13.5769	141.817	83.7402	7.76664	191.685	87.653	87.6337	188.675	73.4131	121.147	175.249	106.372	113.167	
32	0.266667	130.009	110.952	116.885	110.832	117.492	78.9034	106.629	121.881	50.8396	107.865	114.56	24.2443	164.387	142.403	45.1556	143.577	140.623	14.72	120.102	123.059	11.2683	177.436	125.119	31.9765	151.469	122.435	4.92374	121.122	99.5068	9.35299	184.74	103.033	27.7879	162.614	101.819	2.3484	132.796	85.8361	3.28297	188.422	76.9023	37.1971	173.635	76.7468	11.7194	140.438	81.6632	8.74624	194.741	84.6908	88.8347	190.056	69.172	117.145	176.596	107.307	110.976	
33	0.275	131.499	109.096	114.442	109.84	114.97	82.8515	106.104	118.881	53.467	107.035	115.61	23.3059	162.581	144.635	41.5836	147.767	139.389	14.9081	122.091	118.718	9.86899	179.486	120.815	31.3053	154.332	119.959	3.91642	122.831	101.526	8.0764	185.205	101.021	24.2361	164.086	98.2229	0.974539	137.444	83.7592	1.94557	189.122	75.5616	34.2175	174.222	76.5427	11.4738	140.74	78.4468	4.25058	195.534	85.5585	89.6135	189.705	72.023	117.105	172.816	107.54	114.818	
34	0.283333	133.322	108.8	111.889	111.158	116.224	79.673	109.628	116.874	54.9037	106.615	115.539	23.4539	165.442	138.81	41.6761	145.035	138.661	12.7186	121.799	119.667	9.14189	176.651	125.637	28.4128	155.368	119.46	4.21771	121.755	97.8905	10.3344	185.058	101.713	26.572	165.753	97.2912	2.24639	132.227	85.165	3.14584	188.712	74.8358	34.5116	173.312	74.9491	11.5785	143.72	79.8656	5.74653	193.8	81.7878	89.036	188.088	69.3963	119.382	174.446	107.423	111.502	
35	0.291667	133.069	106.754	115.053	112.528	116.172	78.624	107.216	119.17	52.7583	109.538	113.267	26.8176	163.67	143.156	39.9849	149.925	134.965	14.6817	121.48	120.69	9.14963	178.27	123.581	26.4237	154.545	117.337	2.82826	124.292	95.4946	8.51255	186.853	97.8594	26.8547	161.634	98.268	1.1543	132.51	81.2949	2.65178	188.912	75.4525	32.5495	175.527	76.1528	13.9256	144.048	77.8794	6.4447	194.407	85.7959	90.3151	188.845	68.2091	121.485	176.961	104.912	112.241	
36	0.3	133.53	108.227	111.825	112.447	112.308	81.5904	109.196	119.207	49.0617	107.913	113.134	25.0437	165.865	138.428	39.8983	148.228	136.645	13.5658	123.489	115.816	9.24013	176.609	124.446	27.8525	155.781	116.223	3.73817	120.575	97.2736	9.04574	186.027	98.5498	27.5278	161.45	95.0861	1.04709	132.848	81.9099	3.6277	190.349	70.9425	36.1183	171.937	73.2816	9.33043	147.54	78.5393	4.52242	192.548	83.8462	89.1883	189.619	71.8344	117.799	174.965	103.616	114.584	
37	0.308333	133.05	102.356	112.887	111.071	110.329	80.1688	108.546	116.245	47.1136	108.973	109.319	22.4363	165.554	134.951	40.2724	151.4	130.289	11.8373	120.843	115.605	7.41436	179.368	119.032	26.0895	156.918	110.221	1.26	124.1	90.339	8.22849	188.253	95.3188	26.145	162.394	91.5874	-0.342734	135.389	80.6077	2.14343	191.401	67.6737	32.8478	173.658	70.2157	9.14824	144.461	74.9459	5.25524	195.402	80.2698	89.5295	192.854	66.6538	116.216	176.511	103.813	108.763	
38	0.316667	133.992	98.2039	111.097	113.779	104.42	77.3117	111.203	109.615	45.459	109.029	102.733	22.1147	167.486	129.338	33.97	150.991	125.411	7.9945	123.094	106.344	5.92716	183.081	109.846	24.3974	158.854	106.795	-0.295541	124.083	87.2427	5.66163	187.855	90.7193	21.4802	168.989	84.5376	-2.11282	137.473	74.1	0.230341	193.708	62.688	33.6463	180.402	62.6179	9.49942	150.357	67.7755	3.83858	195.146	74.5284	86.9475	191.787	63.8522	115.229	179.195	98.0917	108.043	
39	0.325	133.454	97.8984	108.695	118.308	102.231	71.0586	117.031	103.823	43.2532	112.636	98.0608	20.1816	169.483	126.346	37.5304	155.62	123.458	6.71194	126.295	104.651	2.09409	183.243	110.045	21.187	159.347	100.287	-3.90096	128.065	79.9638	3.9206	191.548	83.7828	18.073	168.993	80.7517	-4.2223	138.559	68.1994	-0.81306	195.361	61.8275	31.3649	180.36	59.5243	6.43273	149.468	61.5409	2.27787	199.606	69.5948	83.8448	193.858	56.1903	115.248	180.349	96.3332	106.443	
40	0.333333	135.873	98.5009	105.688	118.011	100.231	72.6312	114.4	103.422	43.8426	115.604	97.8645	18.4339	170.801	126.238	35.3363	157.215	118.47	5.58247	126.328	98.8963	1.89019	186.693	105.087	21.5691	163.606	101.143	-2.69244	129.822	79.6567	1.59429	193.929	80.5733	21.891	171.041	78.9393	-4.25404	143.171	64.6488	-3.82504	197.907	55.8201	30.1215	181.688	56.0223	5.61846	152.34	57.7629	-0.418047	198.854	71.2757	83.7796	195.535	57.6756	115.304	180.437	91.7527	105.153	
41	0.341667	136.815	95.6575	105.991	115.726	99.6518	74.4064	116.951	102.265	43.2225	115.698	96.7093	15.5698	169.993	126.834	34.9046	155.833	118.741	5.17861	128.89	101.981	0.902468	184.864	107.381	19.5245	163.4	97.3173	-4.28537	130.885	76.1345	1.86166	193.45	81.6448	18.7342	173.393	80.1941	-3.87789	141.472	62.9572	-2.85919	198.425	54.7948	32.3919	179.936	58.5691	6.39258	154.663	57.1227	-1.16933	200.48	69.3953	86.0774	194.034	57.3133	112.119	178.412	93.9462	107.086	
42	0.35	138.89	94.9396	105.084	118.067	97.7177	74.3477	115.596	102.457	42.4137	114.977	97.2012	14.6324	171.989	122.607	31.171	158.37	116.5	6.33523	130.65	99.2907	1.46688	186.873	104.372	18.9801	166.605	97.7031	-3.84	132.113	78.1403	-0.114066	192.756	84.0659	21.898	172.466	78.9529	-4.75403	144.671	68.167	-4.57788	199.249	53.8217	31.5034	185.737	55.5383	6.46474	154.264	58.1243	-2.09925	200.721	69.1015	86.0999	195.966	56.1294	112.211	180.243	94.2504	104.08	
43	0.358333	137.079	96.4446	105.63	120.274	97.1453	73.2009	116.456	100.836	44.5698	115.251	96.3266	19.3133	174.093	121.339	35.4736	154.903	118.283	3.6923	130.626	100.863	0.476691	186.966	104.59	24.4182	163.548	101.343	-3.41971	133.208	81.3988	-1.10241	195.788	83.1036	22.842	171.77	79.0889	-5.15859	146.662	63.6922	-4.83682	200.449	54.2804	29.6884	184.751	57.9995	7.34774	155.909	58.1874	-1.25334	200.421	69.0305	86.3039	196.666	56.9994	113.363	181.659	89.421	106.52	
44	0.366667	140.878	94.2192	102.034	121.034	96.9845	73.6109	117.263	100.328	44.744	115.863	96.0307	17.6337	173.56	124.489	30.9376	158.438	119.565	5.45805	131.999	96.1668	0.515422	186.66	106.247	21.6569	165.378	97.5944	-4.53614	133.376	79.1232	-0.437132	195.352	82.9989	18.9715	172.632	79.2251	-5.85134	147.23	63.8279	-4.20901	198.847	58.0996	31.671	184.54	56.5325	6.32497	156.725	61.3492	1.0468	204.01	70.8403	82.9948	195.051	54.4284	115.488	180.774	91.5418	107.36	
45	0.375	140.169	90.7886	101.527	120.847	94.9128	69.0523	116.678	98.8917	40.4562	117.429	92.1628	12.2192	175.574	119.737	34.0364	158.621	116.751	4.5031	131.362	93.9175	-0.450216	188.04	105.395	22.0142	168.113	98.7518	-4.21069	136.897	73.6053	-0.881158	197.3	82.3166	23.56	175.437	76.0389	-5.66992	148.775	60.5899	-5.2591	203.793	55.1147	28.8381	189.676	57.3704	8.97616	159.21	53.2897	-2.43444	201.831	70.4271	84.9102	199.212	52.5457	116.264	180.188	93.6589	104.856	
46	0.383333	135.312	82.6406	99.134	119.975	81.3106	66.8496	116.17	84.2105	34.3941	118.981	76.0939	13.1414	167.451	115.38	30.6438	157.443	104.858	0.704318	132.075	78.3408	-2.99298	186.686	98.452	19.9106	165.885	88.1417	-7.42186	139.771	61.5434	-1.32745	197.726	78.303	21.3551	176.798	67.8217	-7.05338	151.363	49.0193	-4.47753	207.875	51.0165	26.4951	188.836	46.6939	4.15939	161.245	46.4085	1.34137	206.013	66.542	79.0671	202.512	54.117	111.355	180.256	86.3761	102.279	
47	0.391667	134.944	68.1486	99.9017	113.053	65.1369	64.89	109.359	64.2028	36.1309	116.369	55.8237	11.3097	158.063	101.278	26.2226	149.424	85.4522	-4.75245	124.767	64.4038	-5.89716	179.706	82.6022	12.2395	155.796	67.1789	-11.2689	129.404	43.2307	2.28149	191.359	64.2847	16.6295	169.742	46.8312	-9.34121	146.431	30.567	-1.78486	200.659	41.3947	25.1183	181.78	36.8941	5.93542	153.504	29.5606	3.89359	203.203	60.5928	78.7893	199.071	50.8496	112.429	174.571	79.0103	101.42	
48	0.4	135.31	77.278	99.104	109.215	74.6767	70.3256	102.967	69.6279	39.2271	98.2483	57.9548	19.7402	156.576	82.2217	12.6223	138.854	73.7708	-7.69433	110.223	55.4463	-2.03875	166.561	60.6984	5.48	137.28	52.4688	-10.7888	107.44	39.3256	11.2501	172.377	43.1907	10.4528	146.793	31.0281	-6.98352	116.477	19.0364	12.0311	177.934	18.6964	25.9138	155.35	12.8683	6.66892	125.934	18.7014	14.3518	193.334	42.4832	73.3238	196.175	39.3078	103.882	178.082	73.7252	92.2659	
49	0.408333	151.226	89.925	93.2602	123.158	100.637	66.4529	106.896	98.2268	46.0456	92.1932	84.1465	26.7105	148.922	70.3878	11.6521	118.257	68.0408	-5.86185	89.169	74.0948	9.38885	146.438	50.4022	7.64594	108.16	49.7306	-3.85609	85.403	59.6828	21.062	139.801	26.0705	13.3133	110.308	33.2484	1.5063	83.3767	40.6454	25.155	140.241	11.2016	34.4951	114.173	13.0094	18.2497	92.9979	33.3041	25.9197	172.895	27.3043	69	179.324	30.3794	101.02	181.803	63.0911	83.3054	
50	0.416667	167.046	98.5082	87.6629	143.592	118.352	65.9929	126.24	118.265	45.0884	103.555	110.721	26.5463	149.542	72.7031	7.49178	120.552	80.7376	-6.94414	96.8352	97.2873	9.13182	134.788	52.4863	5.21675	107.262	66.6355	-3.60331	83.9898	83.4461	23.3571	123.786	31.6208	18.5268	97.4779	46.7776	6.25884	77.1896	67.224	28.2265	118.208	19.7194	40.4862	99.2619	31.9467	22.8136	80.6466	54.7672	30.6562	158.991	29.1826	68.9884	169.597	28.7377	101.718	179.87	56.6469	82.4729	
51	0.425	182.831	102.689	93.2267	164.546	119.819	63.3563	149.665	123.387	42.4809	129.996	121.294	21.7098	169.875	73.0258	12.3372	145.293	84.195	-6.13635	124.015	110.306	3.91575	154.566	54.7875	10.1071	129.845	73.1627	-7.75719	109.151	101.896	13.5304	136.77	37.424	20.0607	114.929	60.6808	0.704713	96.3417	82.0622	18.1972	126.675	28.598	38.8106	109.736	37.583	20.7343	98.1076	71.3689	20.5298	164.378	32.7031	73.3123	168.524	30.6569	108.806	191.166	58.2744	86.412	
52	0.433333	194.152	104.286	96.7823	178.918	122.009	65.4464	170.466	120.838	38.7536	157.707	122.267	16.2046	199.399	75.3986	14.276	180.589	88.1579	-8.27816	151.631	108.021	0.32482	188.146	54.8129	9.00675	169.195	73.8883	-11.0208	139.704	95.8184	4.2612	173.116	40.9476	15.3317	153.501	57.0252	-5.33331	129.55	79.4851	4.10912	158.511	29.0401	35.6049	147.496	39.7879	11.5402	133.829	67.0725	6.3308	184.595	32.4152	78.1637	183.504	37.1236	114.589	204.526	60.8494	94.2844	
53	0.441667	188.399	105.925	100.783	174.673	119.968	66.6013	172.588	119.12	39.9277	168.784	112.547	9.51669	223.637	90.9736	25.2383	207	92.1404	-1.56956	174.499	100.253	-4.57398	223.724	71.7477	16.4438	198.584	79.7912	-11.6174	164.455	86.8968	-2.96054	212.712	48.2414	15.1757	193.948	57.6337	-8.31621	162.647	73.3283	-5.14199	199.474	30.1343	32.2879	189.951	37.4579	6.87913	171.24	61.2921	-1.98387	213.702	39.8255	82.7938	204.676	39.0913	114.28	219.49	74.567	101.59	
